<?xml version="1.0" encoding="UTF-8"?>
<svg id="katman_1" xmlns="http://www.w3.org/2000/svg" version="1.1" viewBox="0 0 500 500">
  <!-- Generator: Adobe Illustrator 29.1.0, SVG Export Plug-In . SVG Version: 2.1.0 Build 142)  -->
  <defs>
    <style>
      .st0 {
        fill: #1d1d1b;
      }

      .st1 {
        fill: #2f358b;
      }
    </style>
  </defs>
  <g>
    <path class="st0" d="M72.76,277.53c-.47,0-.64-.17-.64-.47,0-.09.04-.3.09-.47l12.2-27.32c.26-.6.73-.94,1.37-.94h31.9c5.44,0,8.26,3.77,8.26,8.82,0,10.4-11.09,20.38-21.24,20.38h-31.94ZM92.37,251.2l-10.4,23.42h19.05c5.82,0,15.58-9.85,15.58-18.07,0-3.6-1.71-5.35-5.18-5.35h-19.05Z"/>
    <path class="st0" d="M160.03,277.53c-.81,0-1.2-.13-1.71-.51l-17.3-13.4c-.17-.13-.21-.26-.21-.43,0-.13.04-.3.13-.51l.39-.81c.17-.43.51-.64.94-.64h16.91c5.65,0,8.48-3.38,8.48-7.11,0-2.1-1.54-2.91-4.02-2.91h-20.77l-11.43,25.69c-.17.43-.51.64-.94.64h-7.54c-.34,0-.43-.13-.43-.3,0-.13,0-.21.09-.34l12.2-27.45c.34-.73.81-1.11,1.54-1.11h34.6c3.55,0,5.87,1.41,5.87,4.71,0,6.25-6.29,11-12.84,11h-12.89l18.8,12.54c.13.09.21.26.21.39,0,.3-.39.56-.86.56h-9.21Z"/>
    <path class="st0" d="M215.1,248.33c5.4,0,8.22,3.77,8.22,8.82,0,10.06-10.75,20.38-21.24,20.38h-19.4c-5.39,0-8.22-3.77-8.22-8.86,0-10.02,10.75-20.34,21.24-20.34h19.4ZM198.4,251.2c-9.89,0-15.46,12.42-15.46,17.9,0,3.47,1.58,5.52,5.05,5.52h11.39c9.89,0,15.41-12.37,15.41-17.9,0-3.47-1.54-5.52-5.01-5.52h-11.39Z"/>
    <path class="st0" d="M263.27,277.53c-.86,0-1.58-.17-2.01-.47l-28.86-20.68-9.08,20.51c-.21.43-.56.64-.94.64h-3c-.3,0-.43-.13-.43-.3,0-.13,0-.21.09-.34l12.42-27.87c.17-.47.51-.68.94-.68h2.91c.94,0,1.41.08,1.88.47l27.79,20.47,9.03-20.25c.17-.47.51-.68.98-.68h2.95c.3,0,.43.08.43.34,0,.04-.04.17-.04.34l-12.42,27.87c-.17.43-.51.64-.98.64h-1.67Z"/>
    <path class="st0" d="M282.29,277.53c-5.27,0-8.22-3.72-8.22-8.91,0-9.98,10.58-20.29,21.24-20.29h27.32c.26,0,.43.08.43.34,0,.04-.04.17-.09.34l-.68,1.54c-.21.43-.56.64-.94.64h-22.31c-6.94,0-15.41,8.95-15.41,17.77,0,3.77,1.76,5.65,4.97,5.65h22.39c.26,0,.43.13.43.34,0,.09-.04.21-.09.34l-.69,1.58c-.17.43-.51.64-.94.64h-27.4ZM289.91,263.02c-.3,0-.43-.13-.43-.34,0-.08,0-.21.08-.34l.69-1.54c.17-.47.51-.68.94-.68h25.82c.34,0,.51.13.51.3v.17l-.9,1.97c-.13.3-.43.47-.86.47h-25.86Z"/>
  </g>
  <g>
    <polygon points="354.64 267.3 362.44 261.52 383.06 277.53 367.22 277.53 354.64 267.3"/>
    <polygon points="352.74 255.04 344.19 259.84 328.48 248.18 343.75 247.93 352.74 255.04"/>
    <path class="st1" d="M340.09,277.14h-14.83c1.73-1.53,3.5-3.04,5.32-4.52,22.09-18.05,58.32-38.6,116.14-43.34-20.83,2.03-53.23,8.46-84.62,30.28-8.22,5.71-15.98,11.72-22.01,17.59Z"/>
  </g>
  <g>
    <path class="st1" d="M146.9,239.25c-1.86-.58-.1-5.08.43-6.25,2.94-6.55,10.44-9.05,17.27-8.76,5.45-7.78,15.34-9.66,24.27-7.84,13.34-31.82,58.02-29.28,68.59,3.29,11.4-1.91,21.79.41,29.82,8.91,8.83-1.65,18.2-1.21,26.51,2.38,3.39,1.47,8.56,4.48,9.26,8.27h-176.16ZM318.05,237.02c-8.48-7.54-21.18-7.45-31.88-5.65-7.76-8.54-18.69-12.09-29.94-8.54-2.9-6.03-5.18-11.83-10.04-16.64-17.93-17.75-47.2-10.3-55.68,12.94-7.63-1.39-14.42-1.78-20.78,3.43-1.04.85-3.6,4.21-4,4.35-1.42.49-4.19-.09-5.98.14-4.87.63-10.49,4.82-10.9,9.97h169.2Z"/>
    <path class="st1" d="M146.91,239.25h-58.93c-.25-.78-4.8-15.48,4.28-25.97,8.28-9.57,24.33-11.55,37.06-3.02,1.09-2.36,7.35-15.41,22.44-20.53,19.29-6.54,35.41,5.85,36.57,6.77,0,0,4.46,3.04,8.56,8.75l-2.14,2.14c-1.71-2.36-4.48-5.68-8.6-8.75-3.07-2.3-13.32-9.26-25.96-8.15-12.86,1.13-24.37,10.29-30.21,23.32-11.51-9.14-26.85-8.22-34.86.23-8.43,8.89-5.1,22.28-4.88,23.11h57.67l-1.02,2.1Z"/>
  </g>
</svg>